<?xml version="1.0" encoding="UTF-8" standalone="no"?>
<svg
   xmlns:dc="http://purl.org/dc/elements/1.1/"
   xmlns:cc="http://creativecommons.org/ns#"
   xmlns:rdf="http://www.w3.org/1999/02/22-rdf-syntax-ns#"
   xmlns:svg="http://www.w3.org/2000/svg"
   xmlns="http://www.w3.org/2000/svg"
   xmlns:sodipodi="http://sodipodi.sourceforge.net/DTD/sodipodi-0.dtd"
   xmlns:inkscape="http://www.inkscape.org/namespaces/inkscape"
   width="50"
   height="50"
   viewBox="0 0 50 50"
   version="1.1"
   id="svg4"
   sodipodi:docname="linkedin-cilrcle.svg"
   inkscape:version="1.0.1 (3bc2e813f5, 2020-09-07)">
  <metadata
     id="metadata10">
    <rdf:RDF>
      <cc:Work
         rdf:about="">
        <dc:format>image/svg+xml</dc:format>
        <dc:type
           rdf:resource="http://purl.org/dc/dcmitype/StillImage" />
        <dc:title></dc:title>
      </cc:Work>
    </rdf:RDF>
  </metadata>
  <defs
     id="defs8" />
  <sodipodi:namedview
     pagecolor="#ffffff"
     bordercolor="#666666"
     borderopacity="1"
     objecttolerance="10"
     gridtolerance="10"
     guidetolerance="10"
     inkscape:pageopacity="0"
     inkscape:pageshadow="2"
     inkscape:window-width="1600"
     inkscape:window-height="842"
     id="namedview6"
     showgrid="false"
     inkscape:zoom="4.8381963"
     inkscape:cx="13.134236"
     inkscape:cy="57.399308"
     inkscape:window-x="0"
     inkscape:window-y="34"
     inkscape:window-maximized="1"
     inkscape:current-layer="svg4"
     inkscape:document-rotation="0" />
  <path
     d="M 25,0 C 11.19375,0 0,11.19375 0,25 0,38.80625 11.19375,50 25,50 38.80625,50 50,38.80625 50,25 50,11.19375 38.80625,0 25,0 Z m -4.166667,33.333333 h -4.166666 v -12.5 h 4.166666 z M 18.75,18.977083 c -1.264583,0 -2.291667,-1.033333 -2.291667,-2.310416 0,-1.275 1.025,-2.310417 2.291667,-2.310417 1.266667,0 2.291667,1.035417 2.291667,2.310417 0,1.277083 -1.027084,2.310416 -2.291667,2.310416 z m 16.666667,14.35625 h -4.1625 v -5.960416 c 0,-3.91875 -4.170834,-3.5875 -4.170834,0 v 5.960416 h -4.166666 v -12.5 h 4.166666 v 2.277084 c 1.816667,-3.366667 8.333334,-3.616667 8.333334,3.225 z"
     id="path2"
     style="stroke-width:2.08334" />
</svg>
