<?xml version="1.0" encoding="UTF-8" standalone="no"?>
<svg
   xmlns:dc="http://purl.org/dc/elements/1.1/"
   xmlns:cc="http://creativecommons.org/ns#"
   xmlns:rdf="http://www.w3.org/1999/02/22-rdf-syntax-ns#"
   xmlns:svg="http://www.w3.org/2000/svg"
   xmlns="http://www.w3.org/2000/svg"
   xmlns:sodipodi="http://sodipodi.sourceforge.net/DTD/sodipodi-0.dtd"
   xmlns:inkscape="http://www.inkscape.org/namespaces/inkscape"
   width="50"
   height="50"
   viewBox="0 0 50 50"
   version="1.1"
   id="svg4"
   sodipodi:docname="linkedin-circular-hover.svg"
   inkscape:version="1.0.1 (3bc2e813f5, 2020-09-07)">
  <metadata
     id="metadata10">
    <rdf:RDF>
      <cc:Work
         rdf:about="">
        <dc:format>image/svg+xml</dc:format>
        <dc:type
           rdf:resource="http://purl.org/dc/dcmitype/StillImage" />
      </cc:Work>
    </rdf:RDF>
  </metadata>
  <defs
     id="defs8" />
  <sodipodi:namedview
     pagecolor="#ffffff"
     bordercolor="#666666"
     borderopacity="1"
     objecttolerance="10"
     gridtolerance="10"
     guidetolerance="10"
     inkscape:pageopacity="0"
     inkscape:pageshadow="2"
     inkscape:window-width="1600"
     inkscape:window-height="842"
     id="namedview6"
     showgrid="false"
     inkscape:zoom="28"
     inkscape:cx="12.071429"
     inkscape:cy="12"
     inkscape:window-x="0"
     inkscape:window-y="34"
     inkscape:window-maximized="1"
     inkscape:current-layer="svg4" />
  <path
     d="M 25,4.1666667 C 36.4875,4.1666667 45.833333,13.5125 45.833333,25 45.833333,36.4875 36.4875,45.833333 25,45.833333 13.5125,45.833333 4.1666667,36.4875 4.1666667,25 4.1666667,13.5125 13.5125,4.1666667 25,4.1666667 Z M 25,0 C 11.19375,0 0,11.19375 0,25 0,38.80625 11.19375,50 25,50 38.80625,50 50,38.80625 50,25 50,11.19375 38.80625,0 25,0 Z m -4.166667,16.666667 c 0,1.160416 -0.93125,2.1 -2.083333,2.1 -1.152083,0 -2.083333,-0.9375 -2.083333,-2.1 0,-1.160417 0.93125,-2.1 2.083333,-2.1 1.152083,0 2.083333,0.941666 2.083333,2.1 z m 0,4.166666 h -4.166666 v 12.5 h 4.166666 z m 6.25,0 h -4.166666 v 12.5 h 4.166666 v -5.960416 c 0,-3.5875 4.170834,-3.91875 4.170834,0 v 5.960416 h 4.1625 v -6.997916 c 0,-6.841667 -6.516667,-6.591667 -8.333334,-3.225 z"
     id="path2"
     style="stroke-width:2.08334" />
</svg>
